<svg width="24" height="25" viewBox="0 0 24 25" fill="none" xmlns="http://www.w3.org/2000/svg">
<g clip-path="url(#clip0_29_42)">
<path d="M8.36061 1.28943C5.96264 2.12131 3.89463 3.70024 2.46035 5.79431C1.02606 7.88838 0.301099 10.3872 0.391944 12.9237C0.48279 15.4603 1.38466 17.9008 2.96507 19.8869C4.54549 21.873 6.72115 23.3 9.17249 23.9582C11.1598 24.471 13.242 24.4935 15.24 24.0238C17.05 23.6173 18.7233 22.7476 20.0962 21.5001C21.5251 20.162 22.5623 18.4597 23.0962 16.5763C23.6766 14.5282 23.7799 12.3743 23.3981 10.2801H12.2381V14.9094H18.7012C18.5721 15.6478 18.2953 16.3525 17.8874 16.9814C17.4795 17.6102 16.949 18.1504 16.3275 18.5694C15.5383 19.0915 14.6486 19.4428 13.7156 19.6007C12.7799 19.7747 11.8201 19.7747 10.8844 19.6007C9.93597 19.4046 9.0388 19.0132 8.24999 18.4513C6.98277 17.5543 6.03126 16.2799 5.53124 14.8101C5.02277 13.3127 5.02277 11.6893 5.53124 10.1919C5.88716 9.14234 6.47555 8.18669 7.25249 7.39631C8.1416 6.47521 9.26724 5.8168 10.5059 5.49333C11.7446 5.16985 13.0484 5.1938 14.2744 5.56256C15.2321 5.85654 16.1078 6.37019 16.8319 7.06256C17.5606 6.33756 18.2881 5.61068 19.0144 4.88193C19.3894 4.49006 19.7981 4.11693 20.1675 3.71568C19.0623 2.6872 17.765 1.88691 16.35 1.36068C13.7732 0.425038 10.9537 0.399894 8.36061 1.28943Z" fill="#0AF9E6"/>
<path d="M8.36061 1.28937C10.9535 0.399224 13.773 0.423707 16.35 1.35874C17.7653 1.88855 19.062 2.69269 20.1656 3.72499C19.7906 4.12624 19.395 4.50124 19.0125 4.89124C18.285 5.61749 17.5581 6.34124 16.8319 7.06249C16.1078 6.37012 15.2321 5.85648 14.2744 5.56249C13.0488 5.19244 11.745 5.16711 10.506 5.48926C9.26702 5.81141 8.1407 6.46861 7.25061 7.38874C6.47367 8.17912 5.88529 9.13477 5.52936 10.1844L1.64249 7.17499C3.03375 4.41604 5.44264 2.30566 8.36061 1.28937Z" fill="#E33629"/>
<path d="M0.611248 10.1563C0.820163 9.12091 1.16701 8.11822 1.6425 7.17505L5.52937 10.1919C5.0209 11.6893 5.0209 13.3127 5.52937 14.81C4.23437 15.8101 2.93875 16.8151 1.6425 17.8251C0.452156 15.4556 0.0891221 12.756 0.611248 10.1563Z" fill="#F8BD00"/>
<path d="M12.2381 10.2781H23.3981C23.7799 12.3723 23.6766 14.5262 23.0963 16.5743C22.5623 18.4577 21.5252 20.16 20.0963 21.4981C18.8419 20.5193 17.5819 19.5481 16.3275 18.5693C16.9494 18.1498 17.4802 17.6091 17.8881 16.9796C18.296 16.35 18.5726 15.6446 18.7013 14.9056H12.2381C12.2363 13.3643 12.2381 11.8212 12.2381 10.2781Z" fill="#587DBD"/>
<path d="M1.64062 17.8251C2.93687 16.8251 4.2325 15.8201 5.5275 14.8101C6.02851 16.2804 6.98138 17.5549 8.25 18.4513C9.04127 19.0106 9.94037 19.3988 10.89 19.5913C11.8257 19.7653 12.7855 19.7653 13.7213 19.5913C14.6542 19.4334 15.5439 19.0821 16.3331 18.5601C17.5875 19.5388 18.8475 20.5101 20.1019 21.4888C18.7292 22.737 17.0558 23.6073 15.2456 24.0144C13.2476 24.4841 11.1655 24.4616 9.17813 23.9488C7.60632 23.5291 6.13814 22.7893 4.86563 21.7757C3.51874 20.7063 2.41867 19.3588 1.64062 17.8251Z" fill="#319F43"/>
</g>
<defs>
<clipPath id="clip0_29_42">
<rect width="24" height="24" fill="white" transform="translate(0 0.5)"/>
</clipPath>
</defs>
</svg>
