<svg width="29" height="30" viewBox="0 0 29 30" fill="none" xmlns="http://www.w3.org/2000/svg">
<path d="M3.01433 13.775C2.44347 13.7766 1.88472 13.9397 1.40274 14.2456C0.920755 14.5516 0.535228 14.9877 0.290761 15.5035C0.0462944 16.0194 -0.0471216 16.594 0.0213208 17.1607C0.0897632 17.7274 0.317267 18.2632 0.677512 18.7061L8.35708 28.1135C8.6309 28.4535 8.98188 28.7233 9.38089 28.9004C9.77989 29.0775 10.2154 29.1569 10.6512 29.1319C11.5834 29.0818 12.4249 28.5832 12.9615 27.7633L28.9139 2.07195C28.9165 2.06769 28.9192 2.06343 28.922 2.05923C29.0717 1.82941 29.0232 1.37397 28.7142 1.08785C28.6293 1.00928 28.5293 0.948915 28.4202 0.910475C28.3111 0.872035 28.1953 0.856333 28.0799 0.864336C27.9646 0.872339 27.852 0.903878 27.7493 0.95701C27.6466 1.01014 27.5558 1.08374 27.4826 1.17328C27.4769 1.18032 27.471 1.18725 27.4649 1.19408L11.3767 19.3714C11.3155 19.4405 11.2411 19.4969 11.158 19.5371C11.0748 19.5772 10.9845 19.6005 10.8922 19.6055C10.8 19.6105 10.7077 19.5971 10.6207 19.5661C10.5336 19.5351 10.4537 19.4872 10.3853 19.425L5.04596 14.5661C4.49141 14.0578 3.76661 13.7755 3.01433 13.775Z" fill="#0A0A12"/>
</svg>
